<?xml version="1.0" standalone="no"?>
<!DOCTYPE svg PUBLIC "-//W3C//DTD SVG 20010904//EN"
 "http://www.w3.org/TR/2001/REC-SVG-20010904/DTD/svg10.dtd">
<svg version="1.0" xmlns="http://www.w3.org/2000/svg"
 width="1023.000000pt" height="1023.000000pt" viewBox="0 0 1023.000000 1023.000000"
 preserveAspectRatio="xMidYMid meet">
<metadata>
Created by potrace 1.11, written by Peter Selinger 2001-2013
</metadata>
<g transform="translate(0.000000,1023.000000) scale(0.100000,-0.100000)"
fill="#000000" stroke="none">
<path d="M4735 9803 c-22 -8 -78 -16 -125 -18 -85 -4 -203 -13 -270 -20 -19
-2 -62 -6 -95 -10 -146 -15 -332 -82 -466 -168 -71 -45 -171 -145 -212 -211
-84 -135 -111 -230 -112 -396 0 -113 3 -131 26 -187 32 -76 62 -111 157 -189
41 -32 76 -63 79 -67 2 -4 -143 66 -324 156 -411 206 -501 238 -660 232 -213
-7 -278 -76 -363 -380 -40 -146 -31 -332 22 -459 47 -111 102 -174 188 -215
51 -24 66 -26 220 -28 281 -4 303 -6 390 -25 220 -47 370 -120 585 -281 170
-128 199 -172 220 -342 6 -51 7 -209 0 -255 -3 -19 -6 -50 -7 -67 -2 -29 -7
-35 -48 -49 -297 -108 -676 -317 -901 -496 -273 -218 -495 -444 -664 -678 -21
-30 -42 -57 -45 -60 -3 -3 -11 -14 -17 -25 -7 -11 -48 -76 -91 -145 -99 -157
-202 -362 -202 -402 0 -41 28 -98 54 -110 12 -5 31 -23 41 -39 46 -71 143 -84
209 -30 10 9 39 57 63 106 327 651 853 1160 1506 1458 38 17 38 17 32 -2 -3
-11 -8 -29 -10 -42 -8 -40 -46 -142 -75 -200 -49 -100 -106 -176 -216 -291
-116 -121 -148 -264 -87 -398 27 -57 99 -154 137 -184 74 -56 121 -70 246 -70
178 0 301 24 423 85 165 83 336 258 420 431 32 65 79 210 91 278 2 14 14 66
26 115 12 50 23 95 24 100 30 131 113 341 151 378 20 20 44 12 87 -27 29 -27
108 -137 108 -150 0 -3 22 -42 49 -89 27 -46 72 -133 101 -193 142 -296 184
-376 241 -463 34 -52 70 -104 80 -115 185 -222 272 -282 441 -305 81 -11 111
-6 184 28 192 90 415 277 549 461 55 74 66 98 72 151 13 110 -61 224 -157 242
-106 20 -211 72 -281 139 -62 60 -115 128 -99 128 17 0 222 -105 333 -171 294
-175 522 -368 751 -639 74 -87 184 -250 289 -425 130 -219 282 -615 331 -865
2 -14 10 -50 16 -80 6 -30 13 -73 16 -95 3 -22 7 -47 9 -55 2 -8 7 -44 11 -80
7 -66 35 -125 64 -135 8 -3 24 -18 35 -35 51 -77 174 -79 229 -3 26 35 26 133
2 268 -50 273 -70 356 -132 544 -142 427 -374 831 -673 1170 -435 493 -931
833 -1501 1031 -52 19 -101 38 -109 44 -8 6 -38 43 -67 82 -29 39 -59 78 -67
85 -35 36 -49 76 -72 210 -46 264 -53 289 -141 461 -35 70 -64 135 -64 145 0
10 15 50 34 88 25 52 57 94 122 160 90 91 188 182 265 245 23 19 77 64 119
100 42 36 98 84 126 107 27 23 60 51 74 63 14 12 40 34 58 48 29 22 81 102 67
102 -3 0 -1 9 5 21 7 11 11 47 11 79 0 133 -114 281 -272 358 -124 59 -131 61
-206 58 -119 -4 -210 -64 -300 -199 -26 -40 -50 -74 -53 -77 -3 -3 -37 -48
-76 -100 -88 -117 -214 -252 -297 -319 -87 -69 -212 -124 -212 -94 0 21 61 87
112 122 103 71 184 199 208 329 44 240 -54 488 -255 642 -41 32 -100 82 -131
112 -45 45 -70 60 -130 80 -86 28 -167 33 -224 11z"/>
<path d="M6450 8575 c-10 -12 -11 -18 -1 -28 10 -9 11 -8 6 6 -8 20 5 22 25 5
12 -11 12 -10 0 7 -8 11 -15 21 -16 23 -1 1 -7 -5 -14 -13z"/>
<path d="M6415 8540 c-4 -6 -1 -9 7 -8 7 2 12 -3 10 -10 -1 -8 2 -11 8 -7 8 5
7 11 -1 21 -14 17 -16 17 -24 4z"/>
<path d="M6376 8488 c3 -4 12 -8 20 -8 8 0 14 4 14 8 0 4 -9 8 -19 8 -11 0
-17 -4 -15 -8z"/>
<path d="M6330 8460 c0 -6 6 -10 13 -10 6 -1 1 -10 -12 -20 -13 -11 -19 -20
-14 -20 10 0 43 32 43 42 0 3 -7 8 -15 12 -8 3 -15 1 -15 -4z"/>
<path d="M6295 8439 c-4 -6 -5 -12 -2 -15 2 -3 7 2 10 11 7 17 1 20 -8 4z"/>
<path d="M6243 8380 c19 -25 20 -26 13 -6 -5 14 -2 17 9 12 9 -3 13 -2 10 3
-3 6 -14 9 -25 8 -15 -1 -17 -4 -7 -17z"/>
<path d="M6218 8363 c7 -3 16 -2 19 1 4 3 -2 6 -13 5 -11 0 -14 -3 -6 -6z"/>
<path d="M6215 8330 c21 -24 26 -25 19 -6 -3 8 -13 17 -22 21 -13 5 -13 2 3
-15z"/>
<path d="M6176 8331 c-3 -4 1 -17 9 -27 15 -19 15 -19 8 0 -5 15 -3 17 8 11
12 -8 12 -6 0 8 -15 19 -18 20 -25 8z"/>
<path d="M6119 8273 c-13 -16 -12 -17 3 -5 14 11 17 10 20 -4 3 -16 4 -15 18
2 8 10 10 16 6 12 -5 -4 -15 -3 -21 2 -9 7 -17 5 -26 -7z"/>
<path d="M6093 8242 c0 -12 5 -22 9 -22 11 0 10 12 -2 30 -7 12 -9 10 -7 -8z"/>
<path d="M6040 8196 c16 -16 22 -18 32 -8 11 11 9 12 -6 6 -15 -6 -18 -4 -14
7 4 10 -1 15 -13 15 -18 0 -18 -1 1 -20z"/>
<path d="M5996 8169 c11 -16 25 -24 33 -21 13 5 13 6 0 10 -7 3 -23 12 -33 21
-19 16 -19 16 0 -10z"/>
<path d="M6010 8186 c0 -2 7 -7 16 -10 8 -3 12 -2 9 4 -6 10 -25 14 -25 6z"/>
<path d="M5916 8121 c-3 -5 1 -14 9 -21 12 -10 16 -9 21 4 4 9 4 20 0 23 -3 4
-6 1 -6 -5 0 -7 -5 -12 -11 -12 -5 0 -7 5 -4 10 3 6 4 10 1 10 -3 0 -7 -4 -10
-9z"/>
<path d="M5980 8120 c-9 -6 -10 -10 -3 -10 6 0 15 5 18 10 8 12 4 12 -15 0z"/>
<path d="M5860 8069 c-12 -9 -12 -10 4 -5 10 4 26 1 35 -6 14 -12 14 -11 2 5
-16 20 -21 21 -41 6z"/>
<path d="M5853 8038 c-3 -6 -1 -8 5 -4 5 3 12 2 14 -4 2 -5 9 -6 16 -1 10 6 9
10 -7 14 -12 3 -24 0 -28 -5z"/>
<path d="M5228 4911 c-43 -22 -68 -58 -72 -106 -5 -54 7 -77 96 -174 18 -20
19 -24 5 -18 -19 7 -80 -14 -100 -35 -43 -45 -63 -101 -83 -233 -12 -77 -11
-289 1 -340 14 -61 25 -79 87 -148 60 -67 100 -73 155 -24 89 81 144 255 138
442 -4 141 -21 194 -85 265 l-49 55 46 7 c58 9 85 35 93 90 8 61 -5 95 -63
160 -62 69 -114 87 -169 59z"/>
<path d="M4808 4833 c-30 -24 -93 -116 -150 -223 -55 -102 -81 -121 -215 -160
-177 -52 -234 -108 -239 -230 -4 -104 21 -179 85 -260 57 -72 126 -137 168
-158 148 -76 338 -72 437 9 107 89 138 214 138 564 0 245 -19 354 -73 407 -16
16 -29 33 -29 37 0 16 -38 41 -62 41 -13 0 -41 -12 -60 -27z m-80 -582 c15 -1
16 -35 1 -63 -21 -39 -133 -65 -157 -35 -30 38 55 109 123 102 11 -2 26 -3 33
-4z"/>
<path d="M2046 4660 c-135 -52 -179 -120 -155 -240 6 -30 21 -90 35 -133 23
-76 30 -139 18 -171 -3 -9 -23 -26 -44 -37 -21 -12 -47 -37 -57 -56 l-18 -34
33 -30 c17 -16 32 -33 32 -37 0 -20 42 -45 74 -44 19 1 39 -4 44 -11 6 -7 30
-73 55 -147 24 -75 53 -154 65 -176 33 -64 123 -165 165 -184 79 -36 205 -2
252 68 35 51 33 95 -5 124 -16 12 -30 27 -30 34 0 24 -31 37 -91 35 -33 -1
-69 4 -80 10 -27 14 -64 95 -88 192 -14 57 -28 87 -55 119 -20 23 -36 45 -36
50 0 4 9 24 19 44 23 43 22 114 -4 234 -30 138 -30 166 -2 209 47 71 45 145
-3 136 -15 -3 -19 1 -16 18 8 49 -26 57 -108 27z"/>
<path d="M2880 4648 c-75 -11 -136 -35 -192 -75 -104 -75 -185 -196 -205 -309
-6 -28 -9 -90 -7 -138 4 -165 63 -291 199 -430 124 -126 239 -176 395 -171 49
2 63 0 40 -4 -40 -8 -160 -61 -160 -70 0 -4 -12 -14 -28 -23 -44 -26 -130
-118 -167 -178 -55 -91 -69 -155 -63 -300 8 -186 40 -272 141 -385 20 -22 37
-43 37 -46 0 -3 30 -27 66 -54 121 -88 204 -90 377 -10 81 38 101 38 157 0 65
-44 71 -45 101 -24 55 39 109 192 104 295 -4 79 -23 122 -85 193 -56 65 -104
93 -200 116 -36 9 -80 24 -99 32 -32 16 -33 18 -28 60 5 45 31 90 93 158 20
22 40 50 45 63 10 26 -6 69 -30 77 -9 2 -22 18 -29 34 -16 35 -79 63 -147 65
-25 0 -45 4 -45 8 0 5 3 8 8 9 50 5 145 53 184 93 77 79 69 172 -24 271 -15
17 -28 33 -28 37 0 10 -66 48 -138 79 -60 25 -67 31 -67 56 0 41 20 87 75 167
55 81 79 135 81 186 3 58 1 64 -41 109 -22 23 -40 46 -40 50 0 14 -76 50 -116
56 -74 10 -109 11 -164 3z"/>
<path d="M6830 4572 c-204 -31 -349 -178 -351 -354 -1 -88 36 -156 159 -288
45 -48 85 -116 85 -146 0 -17 -22 -47 -72 -98 -76 -79 -85 -103 -48 -133 12
-10 27 -28 33 -38 21 -38 72 -58 145 -59 61 0 77 5 153 43 212 107 353 330
361 571 5 116 -6 177 -45 255 -35 72 -138 189 -189 214 -57 29 -162 44 -231
33z m145 -425 c24 -19 13 -61 -22 -84 -36 -24 -112 -22 -130 3 -18 25 -17 32
16 65 24 23 38 29 73 29 24 0 52 -6 63 -13z"/>
<path d="M5631 4544 c-40 -17 -55 -34 -83 -94 -19 -39 -21 -63 -21 -180 0
-249 17 -337 83 -409 22 -25 40 -48 40 -52 0 -4 18 -16 41 -27 56 -28 84 -16
154 63 66 75 110 105 158 107 45 2 66 -12 163 -111 50 -51 88 -81 101 -81 27
0 79 43 98 81 9 16 26 69 39 119 19 71 24 111 23 193 -2 93 -5 108 -34 167
-42 85 -133 182 -198 211 -63 28 -152 29 -255 2 -86 -22 -158 -21 -195 3 -35
23 -73 25 -114 8z"/>
<path d="M3665 4455 c-192 -52 -278 -159 -277 -345 1 -148 39 -233 158 -354
132 -135 371 -122 518 28 86 86 121 187 105 301 -12 93 -49 155 -162 274 -84
88 -224 128 -342 96z m211 -437 c3 -4 -1 -19 -10 -36 -20 -39 -64 -56 -138
-53 -48 2 -31 55 27 85 26 14 108 16 121 4z"/>
<path d="M4895 3747 c-102 -34 -252 -182 -243 -240 2 -12 14 -27 28 -34 14 -7
24 -19 22 -27 -4 -20 37 -46 72 -46 16 0 68 19 115 42 70 34 98 43 149 44 35
1 76 -1 93 -6 16 -5 58 -12 94 -15 58 -6 64 -5 75 14 13 26 3 47 -59 119 -92
106 -258 178 -346 149z"/>
<path d="M5743 3604 c-18 -9 -48 -35 -67 -59 -43 -52 -80 -64 -234 -74 -7 -1
-24 -13 -37 -27 -41 -44 -34 -82 27 -153 28 -34 67 -71 85 -82 50 -31 56 -50
48 -143 -22 -248 -13 -305 65 -395 61 -71 96 -86 150 -64 54 20 84 64 173 243
70 141 88 168 122 191 22 15 42 27 45 26 19 -5 106 31 132 55 26 24 30 34 25
66 -3 24 -17 50 -41 75 -20 21 -36 42 -36 46 0 4 -25 22 -55 40 -31 19 -64 49
-77 70 -38 63 -130 162 -169 182 -46 23 -112 24 -156 3z"/>
<path d="M7970 3519 c-39 -16 -80 -60 -80 -86 0 -12 16 -39 36 -60 19 -21 43
-46 51 -55 9 -10 24 -18 33 -18 54 0 69 -112 36 -272 -15 -74 -16 -93 -5 -125
20 -60 18 -72 -16 -93 -50 -31 -71 -79 -126 -287 -21 -82 -22 -84 -85 -133
-49 -38 -64 -56 -64 -76 0 -19 7 -28 28 -35 20 -7 28 -16 28 -32 -1 -29 48
-46 134 -46 149 -1 204 65 226 274 8 73 33 143 59 163 13 11 47 22 74 26 87
11 107 63 49 122 -82 82 -83 90 -54 274 20 121 20 237 1 283 -20 48 -89 127
-136 156 -45 27 -148 38 -189 20z"/>
<path d="M5144 3337 c-22 -24 -52 -60 -68 -81 -56 -71 -132 -89 -200 -46 -17
10 -62 51 -100 90 -78 79 -103 87 -150 43 -51 -47 -78 -122 -78 -221 -1 -146
44 -273 137 -382 59 -70 89 -95 146 -125 204 -106 452 2 540 234 40 105 35
301 -8 386 -9 16 -39 56 -66 88 -65 75 -96 77 -153 14z"/>
<path d="M6579 3335 c-167 -44 -295 -192 -307 -355 -9 -129 27 -205 161 -341
71 -72 238 -120 292 -85 31 21 31 33 0 87 -14 24 -25 52 -25 62 0 21 51 54
105 67 99 25 119 33 156 67 80 72 108 181 71 267 -41 92 -143 189 -235 223
-55 19 -160 23 -218 8z m199 -271 c18 -5 22 -13 20 -32 -4 -37 -47 -64 -102
-64 -61 0 -79 14 -63 49 19 41 85 63 145 47z"/>
<path d="M4025 3332 c-11 -2 -37 -10 -57 -18 -21 -7 -38 -12 -38 -9 0 10 -75
-34 -106 -62 -87 -78 -126 -221 -100 -368 19 -109 131 -259 233 -310 52 -27
67 -30 154 -30 91 1 100 3 172 38 132 65 213 180 218 308 4 124 -36 211 -148
326 -62 63 -90 84 -136 101 -54 21 -148 32 -192 24z m172 -427 c42 -7 35 -43
-17 -78 -27 -19 -115 -23 -125 -7 -11 18 6 51 35 68 32 20 61 25 107 17z"/>
<path d="M7193 3280 c-30 -12 -50 -55 -78 -165 -33 -128 -40 -191 -39 -330 1
-142 14 -180 91 -262 75 -79 101 -73 228 57 115 117 159 142 284 157 25 3 66
13 91 22 105 39 111 160 13 273 -103 117 -157 142 -338 153 -104 7 -111 10
-167 61 -50 47 -51 47 -85 34z"/>
<path d="M1854 3205 c-72 -31 -98 -96 -77 -195 7 -36 15 -74 17 -85 61 -321
227 -729 429 -1057 192 -310 405 -557 754 -870 112 -100 346 -264 525 -367 93
-53 330 -171 344 -171 3 0 24 -9 47 -19 166 -75 524 -177 727 -207 25 -3 53
-8 62 -9 9 -2 48 -7 85 -11 37 -3 93 -10 123 -14 57 -8 562 -5 615 4 17 2 55
8 85 12 30 4 64 8 75 9 11 2 47 8 80 14 33 6 72 13 88 16 15 3 37 7 50 9 12 2
60 14 107 26 755 190 1411 624 1879 1240 178 233 186 271 81 380 -65 68 -111
91 -160 84 -50 -8 -75 -29 -134 -113 -30 -42 -68 -94 -85 -116 -17 -22 -34
-44 -38 -50 -5 -5 -45 -53 -90 -105 -513 -598 -1265 -984 -2063 -1058 -101 -9
-453 -9 -565 1 -49 4 -133 14 -185 23 -52 9 -108 18 -125 20 -16 3 -48 10 -70
16 -22 5 -47 11 -55 13 -99 20 -301 84 -440 140 -694 282 -1216 763 -1544
1423 -30 59 -66 137 -80 172 -15 36 -31 74 -36 85 -40 84 -130 395 -153 525
-15 84 -28 107 -96 173 -43 42 -78 67 -93 68 -13 0 -30 2 -39 4 -8 1 -29 -3
-45 -10z"/>
</g>
</svg>
